<svg width="1200" height="1200" viewBox="0 0 1200 1200" fill="none" xmlns="http://www.w3.org/2000/svg">
<g clip-path="url(#clip0_260_16)">
<path d="M1200 0H0V1200H1200V0Z" fill="black"/>
<path d="M1200 0H0V1200H1200V0Z" fill="#907CFF" fill-opacity="0.421654"/>
<mask id="mask0_260_16" style="mask-type:luminance" maskUnits="userSpaceOnUse" x="0" y="0" width="1200" height="1200">
<path d="M1200 0H0V1200H1200V0Z" fill="white"/>
</mask>
<g mask="url(#mask0_260_16)">
<g filter="url(#filter0_f_260_16)">
<path d="M1389 441.75H557.25V1351.5H1389V441.75Z" fill="#EE46D3"/>
<path d="M801 4.5H139.5V663.75H801V4.5Z" fill="#FFC700"/>
<path d="M1344 121.5H554.25V974.25H1344V121.5Z" fill="#18A0FB"/>
<path d="M1066.5 73.5H232.5V823.5H1066.5V73.5Z" fill="#EE46D3"/>
</g>
</g>
<g style="mix-blend-mode:overlay">
<path d="M1200 0H0V1200H1200V0Z" fill="#808080"/>
</g>
</g>
<defs>
<filter id="filter0_f_260_16" x="-235.5" y="-370.5" width="1999.5" height="2097" filterUnits="userSpaceOnUse" color-interpolation-filters="sRGB">
<feFlood flood-opacity="0" result="BackgroundImageFix"/>
<feBlend mode="normal" in="SourceGraphic" in2="BackgroundImageFix" result="shape"/>
<feGaussianBlur stdDeviation="187.5" result="effect1_foregroundBlur_260_16"/>
</filter>
<clipPath id="clip0_260_16">
<rect width="1200" height="1200" fill="white"/>
</clipPath>
</defs>
</svg>
